<?xml version="1.0" encoding="utf-8"?>
<!-- Generator: Adobe Illustrator 13.0.0, SVG Export Plug-In  -->
<!DOCTYPE svg PUBLIC "-//W3C//DTD SVG 1.1//EN" "http://www.w3.org/Graphics/SVG/1.1/DTD/svg11.dtd" [
	<!ENTITY ns_flows "http://ns.adobe.com/Flows/1.0/">
]>
<svg version="1.1"
	 xmlns="http://www.w3.org/2000/svg" xmlns:xlink="http://www.w3.org/1999/xlink" xmlns:a="http://ns.adobe.com/AdobeSVGViewerExtensions/3.0/"
	 x="0px" y="0px" width="488px" height="330px" viewBox="-0.5 -0.5 488 330" enable-background="new -0.5 -0.5 488 330"
	 xml:space="preserve">
<defs>
</defs>
<path fill-rule="evenodd" clip-rule="evenodd" fill="none" stroke="#FFFFFF" d="M486.5,21.5c-0.6-2.4-8.8,0.2-13-1
	c-7.1-2-10.7-17.9-24-14c-5.1,1.5-2.1,4.4-5,8c-0.4,0.5-8,1.6-7,6c-72.4,0.4-143.6-0.4-215-1c-4.4,0.7-3.1-3.7-8-5
	c-13.2-3.6-36.2,0-55,0c-19.9,0-38.6-0.1-53,0c-6.5-3.3-3.8-13.6-12-13c-6.1,0.4-4,5-8,10c-31.6,2.8-47.2,30.1-55,60
	c63,0,136.7,0,204,0c23.1,0,48-4,67,0c7.2,1.5,15.7,9.4,25,15c12.9,7.8,24.5,10.6,31,22c23.3,0,46.7,0,70,0c5.9,1.6,3.2-5.5,7-6
	c10.5-0.5,20.5-1.5,32-1c3.1-7.6,2.8-18.5,4-28c0.4-4.3,8.4-1,12-2c1-5.6-2.6-16,3-17c0,91.3,0,182.7,0,274c-162,0-324,0-486,0
	c0-109.3,0-218.7,0-328c162,0,324,0,486,0C486.5,7.5,486.5,14.5,486.5,21.5z"/>
<path fill-rule="evenodd" clip-rule="evenodd" d="M486.5,21.5c0,11,0,22,0,33c-5.6,1-2,11.4-3,17c-3.6,1-11.6-2.3-12,2
	c-1.2,9.5-0.9,20.4-4,28c-11.5-0.5-21.5,0.5-32,1c-3.8,0.5-1.1,7.6-7,6c-23.3,0-46.7,0-70,0c-6.5-11.4-18.1-14.2-31-22
	c-9.3-5.6-17.8-13.5-25-15c-19-4-43.9,0-67,0c-67.3,0-141,0-204,0c7.8-29.9,23.4-57.2,55-60c4-5,1.9-9.6,8-10c8.2-0.6,5.5,9.7,12,13
	c14.4-0.1,33.1,0,53,0c18.8,0,41.8-3.6,55,0c4.9,1.3,3.6,5.7,8,5c71.4,0.6,142.6,1.4,215,1c-1-4.4,6.6-5.5,7-6c2.9-3.6-0.1-6.5,5-8
	c13.3-3.9,16.9,12,24,14C477.7,21.7,485.9,19.1,486.5,21.5z"/>
</svg>
