<?xml version="1.0" standalone="no"?>
<!DOCTYPE svg PUBLIC "-//W3C//DTD SVG 20010904//EN"
 "http://www.w3.org/TR/2001/REC-SVG-20010904/DTD/svg10.dtd">
<svg version="1.0" xmlns="http://www.w3.org/2000/svg"
 width="250.000000pt" height="250.000000pt" viewBox="0 0 250.000000 250.000000"
 preserveAspectRatio="xMidYMid meet">
<metadata>
Created by potrace 1.15, written by Peter Selinger 2001-2017
</metadata>
<g transform="translate(0.000000,250.000000) scale(0.100000,-0.100000)"
fill="#000000" stroke="none">
<path d="M1060 2261 c-14 -5 -59 -16 -100 -26 -41 -10 -82 -22 -90 -26 -8 -4
-49 -24 -90 -45 -246 -120 -426 -326 -514 -586 -36 -109 -48 -194 -48 -348 0
-209 47 -365 168 -553 126 -195 342 -345 614 -428 31 -10 101 -14 230 -13 160
0 196 3 265 22 44 12 89 26 100 31 11 5 40 17 65 27 83 34 245 151 315 226
190 206 285 437 285 698 0 289 -118 567 -321 754 -151 140 -295 215 -512 265
-54 12 -329 14 -367 2z m316 -21 c86 -11 211 -51 204 -65 -6 -13 -68 -35 -102
-35 -15 0 -39 5 -55 11 -16 6 -107 10 -220 10 -112 0 -195 4 -198 9 -4 6 -15
10 -26 10 -12 0 -19 7 -19 18 0 15 14 20 73 30 140 23 233 26 343 12z m62
-121 c38 -13 192 -192 192 -223 0 -6 -30 -43 -66 -81 -36 -39 -84 -94 -106
-124 l-41 -54 -61 8 c-79 10 -103 10 -207 1 l-86 -9 -58 74 c-32 41 -76 93
-97 117 -37 41 -38 43 -23 71 22 43 153 199 178 213 12 6 40 15 62 19 51 10
276 1 313 -12z m624 -301 c59 -90 106 -182 119 -232 37 -141 49 -197 49 -233
0 -24 -3 -43 -6 -43 -14 0 -94 93 -94 108 0 48 -80 254 -124 319 -20 29 -26
50 -26 94 0 95 13 93 82 -13z m-1564 17 c3 -43 -4 -62 -54 -158 -31 -60 -67
-148 -80 -195 -20 -72 -31 -93 -66 -129 -37 -38 -43 -41 -52 -26 -18 32 43
251 102 368 40 79 122 197 135 192 7 -2 13 -25 15 -52z m384 -37 c29 -29 73
-82 99 -117 l46 -63 -38 -72 c-36 -68 -54 -115 -77 -201 -5 -22 -16 -62 -24
-89 l-13 -49 -75 -19 c-123 -32 -133 -35 -174 -52 -21 -8 -44 -12 -52 -8 -30
17 -155 179 -192 247 -20 39 46 228 124 351 30 47 36 52 105 73 41 12 92 29
114 36 77 26 101 20 157 -37z m939 16 c124 -41 142 -57 196 -166 35 -72 83
-212 83 -244 0 -29 -91 -165 -155 -231 l-50 -52 -85 29 c-47 16 -94 30 -105
30 -32 0 -99 27 -107 42 -4 7 -15 49 -24 93 -10 45 -41 130 -71 194 l-53 114
44 61 c24 33 69 85 99 114 69 64 80 65 228 16z m-898 -665 c71 -36 159 -104
230 -177 l67 -70 0 -134 c0 -150 -7 -173 -60 -199 -58 -29 -198 -79 -220 -79
-56 0 -220 108 -322 211 l-58 59 0 62 c0 61 21 204 35 241 9 23 90 56 235 95
49 14 46 14 93 -9z m762 6 c33 -7 47 -12 122 -45 29 -13 60 -31 69 -41 22 -24
44 -146 44 -240 l0 -76 -57 -55 c-72 -68 -214 -174 -261 -194 -19 -7 -45 -14
-59 -14 -34 0 -234 78 -258 101 -18 17 -20 35 -23 164 l-4 145 68 71 c66 68
143 128 229 176 39 23 57 24 130 8z m-1139 -432 c16 -21 42 -51 58 -66 60 -54
188 -147 231 -167 43 -20 44 -21 60 -95 10 -42 15 -79 11 -82 -8 -9 -147 60
-214 106 -131 89 -302 267 -302 313 0 13 11 18 48 21 26 2 55 4 64 5 9 1 29
-15 44 -35z m1537 15 c13 -38 -168 -229 -305 -321 -90 -60 -203 -115 -215
-104 -3 4 -1 24 5 44 6 21 14 53 19 72 7 29 21 42 100 90 82 50 197 147 245
209 15 19 28 22 82 22 42 0 66 -4 69 -12z"/>
</g>
</svg>
