<?xml version="1.0" standalone="no"?>
<!DOCTYPE svg PUBLIC "-//W3C//DTD SVG 20010904//EN"
 "http://www.w3.org/TR/2001/REC-SVG-20010904/DTD/svg10.dtd">
<svg version="1.0" xmlns="http://www.w3.org/2000/svg"
 width="250.000000pt" height="250.000000pt" viewBox="0 0 250.000000 250.000000"
 preserveAspectRatio="xMidYMid meet">

<g transform="translate(0.000000,250.000000) scale(0.100000,-0.100000)"
fill="#000000" stroke="none">
<path d="M1249 2386 c-59 -12 -89 -29 -89 -52 0 -17 -26 -19 -36 -3 -5 8 -38
10 -103 7 -153 -8 -211 -47 -211 -144 0 -60 12 -98 81 -250 60 -133 65 -137
176 -124 91 10 220 -1 370 -32 55 -11 112 -18 125 -15 15 4 32 23 46 49 12 24
53 86 92 138 137 186 144 284 24 360 -106 67 -321 97 -475 66z m298 -67 c84
-21 130 -40 162 -69 57 -53 40 -114 -74 -270 -34 -47 -70 -98 -80 -114 -20
-31 -23 -31 -140 -5 -27 6 -133 14 -235 17 l-185 7 -37 75 c-57 115 -93 232
-79 259 16 30 57 47 124 54 71 7 73 4 59 -101 -11 -88 1 -122 42 -122 33 0 39
11 75 130 18 58 34 111 36 118 3 7 15 17 27 22 33 13 249 12 305 -1z"/>
<path d="M1005 1772 c-225 -32 -468 -388 -557 -817 -26 -126 -36 -388 -18
-490 15 -85 60 -173 113 -221 47 -43 178 -107 262 -129 168 -43 473 -59 637
-34 366 57 498 220 498 614 0 125 -7 186 -39 360 -13 70 -51 192 -86 280 -90
223 -200 369 -297 396 -139 38 -391 58 -513 41z m280 -63 c44 -6 107 -18 140
-26 33 -8 70 -17 83 -20 45 -11 165 -172 225 -303 36 -79 85 -219 96 -274 5
-23 17 -77 26 -121 14 -59 18 -127 19 -260 1 -163 -1 -186 -22 -250 -32 -95
-43 -113 -98 -167 -61 -61 -137 -100 -249 -129 -80 -20 -113 -23 -300 -22
-159 0 -229 4 -287 16 -367 80 -473 230 -432 611 20 184 28 226 76 371 77 236
237 468 368 535 90 46 210 59 355 39z"/>
<path d="M1145 1445 c-3 -8 -7 -21 -9 -28 -2 -7 -31 -21 -65 -30 -112 -31
-168 -110 -159 -226 5 -71 32 -111 114 -172 43 -31 53 -44 50 -62 -3 -12 -10
-79 -17 -149 -11 -116 -14 -128 -32 -128 -30 0 -83 63 -96 115 -9 36 -15 45
-29 41 -9 -3 -34 -8 -54 -12 -33 -5 -38 -10 -38 -34 0 -88 82 -186 182 -219
l37 -12 -6 -49 c-5 -46 -4 -49 20 -55 35 -9 47 0 47 36 0 46 17 69 49 69 74 0
158 53 197 124 22 40 27 63 28 120 1 61 -3 78 -27 118 -15 26 -46 62 -68 80
-107 86 -109 88 -99 138 5 25 9 69 10 98 0 40 4 54 17 59 19 7 60 -38 65 -72
3 -17 9 -20 48 -17 59 5 66 13 52 60 -19 62 -53 105 -105 131 -39 19 -47 28
-47 51 0 38 -55 59 -65 25z m-29 -196 c-3 -17 -6 -52 -6 -78 0 -25 -5 -53 -10
-61 -9 -13 -15 -10 -40 18 -17 18 -30 43 -30 58 0 47 36 93 74 94 15 0 17 -5
12 -31z m96 -390 c35 -43 42 -120 15 -159 -20 -29 -66 -60 -89 -60 -22 0 -23
27 -6 163 11 88 14 98 32 95 10 -2 32 -19 48 -39z"/>
</g>
</svg>
