<?xml version="1.0" standalone="no"?>
<!DOCTYPE svg PUBLIC "-//W3C//DTD SVG 20010904//EN"
 "http://www.w3.org/TR/2001/REC-SVG-20010904/DTD/svg10.dtd">
<svg version="1.0" xmlns="http://www.w3.org/2000/svg"
 width="250.000000pt" height="250.000000pt" viewBox="0 0 250.000000 250.000000"
 preserveAspectRatio="xMidYMid meet">
<metadata>
Created by potrace 1.15, written by Peter Selinger 2001-2017
</metadata>
<g transform="translate(0.000000,250.000000) scale(0.100000,-0.100000)"
fill="#000000" stroke="none">
<path d="M1115 2255 c-144 -14 -194 -24 -305 -61 -167 -56 -216 -97 -261 -215
-25 -64 -38 -253 -41 -565 l-3 -251 42 -84 c23 -46 45 -99 48 -117 6 -28 15
-37 63 -58 32 -14 78 -46 105 -72 49 -48 60 -73 72 -167 3 -27 20 -97 38 -155
29 -95 37 -109 83 -155 49 -48 94 -76 174 -106 53 -21 242 -18 304 4 66 24
125 60 164 99 26 28 37 54 61 148 16 63 32 155 36 203 8 95 8 95 97 195 74 82
148 282 167 452 6 58 17 141 22 185 6 44 9 141 8 215 -4 118 -7 141 -27 179
-39 74 -90 128 -175 186 -120 80 -260 126 -432 140 -44 4 -87 8 -95 9 -8 2
-73 -2 -145 -9z m360 -61 c112 -25 134 -32 202 -65 87 -43 208 -161 248 -243
l28 -57 -7 -175 c-7 -182 -21 -291 -57 -433 -47 -182 -68 -221 -191 -359 l-48
-52 0 -96 c0 -77 -6 -116 -32 -206 l-32 -111 -58 -38 c-32 -20 -84 -45 -116
-55 -70 -23 -208 -25 -272 -5 -55 18 -135 68 -173 109 -43 45 -82 184 -103
365 -7 55 -9 60 -66 107 -33 28 -72 53 -86 57 -48 11 -69 32 -83 81 -7 26 -26
74 -43 106 -31 59 -31 61 -31 215 l0 156 49 5 c44 4 51 8 57 32 4 15 17 42 30
59 15 22 22 44 21 67 -2 20 6 48 18 69 17 30 20 50 19 151 l-2 117 -8 -85
c-10 -109 -16 -130 -41 -157 -17 -18 -20 -31 -16 -68 5 -41 3 -47 -22 -65 -15
-11 -30 -33 -33 -49 -6 -27 -8 -28 -39 -22 l-33 7 0 134 c0 184 22 256 108
363 56 68 144 116 257 139 132 27 437 28 555 2z"/>
<path d="M725 1459 l-35 -31 0 -94 c0 -108 16 -152 70 -194 65 -51 91 -60 176
-60 90 0 120 14 149 70 21 41 21 240 0 280 -28 54 -47 60 -192 60 l-132 0 -36
-31z"/>
<path d="M1398 1451 c-38 -35 -42 -43 -46 -100 -5 -76 13 -147 47 -185 43 -48
125 -80 202 -79 75 0 103 15 143 72 24 34 26 45 26 145 0 173 -13 185 -198
186 l-133 0 -41 -39z"/>
<path d="M1196 1258 c-2 -7 -7 -44 -10 -82 -5 -58 -12 -79 -41 -123 -27 -41
-35 -63 -35 -98 l0 -45 44 0 c42 0 45 2 56 35 6 19 18 35 25 35 8 0 19 -16 26
-35 12 -32 17 -35 52 -35 l38 0 -6 48 c-4 26 -13 65 -20 87 -7 22 -22 74 -35
115 -12 41 -25 82 -29 90 -10 19 -60 26 -65 8z"/>
<path d="M1152 758 c-5 -7 -13 -43 -17 -80 -6 -54 -11 -69 -27 -74 -30 -9 -47
13 -50 69 -4 69 -22 62 -28 -10 -5 -57 -5 -58 -40 -63 -51 -7 -54 -38 -3 -42
l38 -3 5 -55 c4 -40 9 -55 20 -55 11 0 16 16 20 60 5 57 7 60 33 63 25 3 27 1
27 -35 0 -85 12 -143 29 -143 15 0 16 9 13 65 -5 80 2 112 28 120 44 14 57 -1
65 -78 4 -39 7 -80 7 -89 -1 -10 6 -18 14 -18 11 0 14 17 14 79 0 60 4 84 16
96 31 30 48 14 59 -55 5 -36 15 -64 20 -63 6 2 12 31 15 65 5 62 5 63 35 63
29 0 30 -2 35 -54 7 -76 26 -76 34 -1 l7 60 39 0 c47 0 56 26 13 36 -47 10
-54 13 -52 26 1 7 1 30 0 51 -1 30 -5 37 -21 37 -18 0 -20 -7 -20 -55 0 -41
-4 -57 -16 -62 -25 -9 -35 10 -41 76 -5 47 -9 61 -22 61 -12 0 -17 -11 -19
-45 -3 -62 -18 -95 -41 -95 -29 0 -41 30 -41 99 0 45 -4 61 -14 61 -17 0 -26
-30 -26 -90 0 -25 -4 -51 -9 -59 -9 -13 -56 -19 -68 -8 -3 4 -7 38 -8 77 -3
78 -7 87 -23 68z"/>
</g>
</svg>
