<?xml version="1.0" encoding="utf-8"?>
<!-- Generator: Adobe Illustrator 13.0.0, SVG Export Plug-In  -->
<!DOCTYPE svg PUBLIC "-//W3C//DTD SVG 1.1//EN" "http://www.w3.org/Graphics/SVG/1.1/DTD/svg11.dtd" [
	<!ENTITY ns_flows "http://ns.adobe.com/Flows/1.0/">
]>
<svg version="1.1"
	 xmlns="http://www.w3.org/2000/svg" xmlns:xlink="http://www.w3.org/1999/xlink" xmlns:a="http://ns.adobe.com/AdobeSVGViewerExtensions/3.0/"
	 x="0px" y="0px" width="62px" height="111px" viewBox="-0.3 -0.5 62 111" enable-background="new -0.3 -0.5 62 111"
	 xml:space="preserve">
<defs>
</defs>
<path fill-rule="evenodd" clip-rule="evenodd" fill="none" stroke="#FFFFFF" d="M6.7,0.5c-1.8,1.2-4.1,1.9-5,4
	c9.8,11.4,18.5,20.9,15,41c-1.4,7.9-9.7,15.2-6,26c1.8,5.4,9.1,8.5,12,12c4.2,5.1,3.8,10.7,10,14c7.9-0.1,6.5-9.5,8-16
	c-11.8-22.7,14.9-36.5,19-56c-10.9-7.8-21.5-2.4-31-9c-8.1-5.6-8.8-15.2-21-16c17.7,0,35.3,0,53,0c0,36.3,0,72.7,0,109
	c-20,0-40,0-60,0c0.7-36-1.3-74.7,1-109C3.3,0.5,5,0.5,6.7,0.5z"/>
<path fill-rule="evenodd" clip-rule="evenodd" d="M6.7,0.5c0.3,0,0.7,0,1,0c12.2,0.8,12.9,10.4,21,16c9.5,6.6,20.1,1.2,31,9
	c-4.1,19.5-30.8,33.3-19,56c-1.5,6.5-0.1,15.9-8,16c-6.2-3.3-5.8-8.9-10-14c-2.9-3.5-10.2-6.6-12-12c-3.7-10.8,4.6-18.1,6-26
	c3.5-20.1-5.2-29.6-15-41C2.6,2.4,4.9,1.7,6.7,0.5z"/>
</svg>
