<?xml version="1.0" encoding="utf-8"?>
<!-- Generator: Adobe Illustrator 13.0.0, SVG Export Plug-In  -->
<!DOCTYPE svg PUBLIC "-//W3C//DTD SVG 1.1//EN" "http://www.w3.org/Graphics/SVG/1.1/DTD/svg11.dtd" [
	<!ENTITY ns_flows "http://ns.adobe.com/Flows/1.0/">
]>
<svg version="1.1"
	 xmlns="http://www.w3.org/2000/svg" xmlns:xlink="http://www.w3.org/1999/xlink" xmlns:a="http://ns.adobe.com/AdobeSVGViewerExtensions/3.0/"
	 x="0px" y="0px" width="488px" height="330px" viewBox="-0.5 -0.5 488 330" enable-background="new -0.5 -0.5 488 330"
	 xml:space="preserve">
<defs>
</defs>
<path fill-rule="evenodd" clip-rule="evenodd" fill="none" stroke="#FFFFFF" d="M1.5,0.5c161.6,0,323.3,0,484.9,0
	c0,109.3,0,218.6,0,328c-162,0-324,0-485.9,0c0-108.3,0-216.6,0-325C0.5,2.1,0.4,0.7,1.5,0.5z M198.5,142.5c10.4,10.6,19.9,37,39,29
	c-3-8.3-10.1-7.1-15-12c-18-17.8-6.9-44.2,7-60c-10.1-3.9-19.5-8.4-30-12C200.3,106.9,198,123.3,198.5,142.5z"/>
<path fill-rule="evenodd" clip-rule="evenodd" d="M199.5,87.5c10.4,3.6,19.9,8.1,30,12c-13.9,15.8-25,42.1-7,60
	c4.9,4.9,12,3.7,15,12c-19.1,8-28.6-18.4-39-29C198,123.3,200.3,106.9,199.5,87.5z"/>
</svg>
