<?xml version="1.0" encoding="utf-8"?>
<!-- Generator: Adobe Illustrator 13.0.0, SVG Export Plug-In  -->
<!DOCTYPE svg PUBLIC "-//W3C//DTD SVG 1.1//EN" "http://www.w3.org/Graphics/SVG/1.1/DTD/svg11.dtd" [
	<!ENTITY ns_flows "http://ns.adobe.com/Flows/1.0/">
]>
<svg version="1.1"
	 xmlns="http://www.w3.org/2000/svg" xmlns:xlink="http://www.w3.org/1999/xlink" xmlns:a="http://ns.adobe.com/AdobeSVGViewerExtensions/3.0/"
	 x="0px" y="0px" width="488px" height="330px" viewBox="-0.5 -0.5 488 330" enable-background="new -0.5 -0.5 488 330"
	 xml:space="preserve">
<defs>
</defs>
<path fill-rule="evenodd" clip-rule="evenodd" fill="none" stroke="#FFFFFF" d="M486.5,19.5c-117.4,3.6-253.8,2-377,2
	c-25.6,0-49.9-3.4-64,7c-8.1,11.8-6.4,36.5-18,49c-6.5,7-25.3,6.5-25,18c0.3,11.2,13.9,7.3,26,12c6.7,2.6,18.5,13.1,20,26
	c1.4,11.8-5,23.5-9,35c-10.3,29.3-31.1,70.4-34,98c-1.5,14.5,1,31.3,5,39c2.8,5.5,4.2,12.7,10,14c10.6,2.5,11.7-5,19-8
	c2.7,14.1,29.7,10.5,51,12c16.1,1.1,32.4,2.7,42-2c4.3-8.1,0.5-19.8,0-29c-1.2-21.9,4.3-43,10-64c4-15,9.7-43.6,27-47
	c11-2.2,24.9,4.9,36,6c30,2.9,55.8-5.8,77-17c-1.3-24.6,1-39.6,12-50c22.6-21.3,59-9.5,94-15c4.4-0.7,1.4-2.7,2-3
	c4.5-2.3,12,1.5,16-2c4.1-7.6,1.3-16.5,2-28c-9,0-18,0-27,0c0-5,0-10,0-15c32.5-4.5,71.7-2.3,105-6c0,92.3,0,184.7,0,277
	c-162,0-324,0-486,0c0-109.3,0-218.7,0-328c162,0,324,0,486,0C486.5,6.8,486.5,13.2,486.5,19.5z"/>
<path fill-rule="evenodd" clip-rule="evenodd" d="M486.5,19.5c0,10.7,0,21.3,0,32c-33.3,3.7-72.5,1.5-105,6c0,5,0,10,0,15
	c9,0,18,0,27,0c-0.7,11.5,2.1,20.4-2,28c-4,3.5-11.5-0.3-16,2c-0.6,0.3,2.4,2.3-2,3c-35,5.5-71.4-6.3-94,15
	c-11,10.4-13.3,25.4-12,50c-21.2,11.2-47,19.9-77,17c-11.1-1.1-25-8.2-36-6c-17.3,3.4-23,32-27,47c-5.7,21-11.2,42.1-10,64
	c0.5,9.2,4.3,20.9,0,29c-9.6,4.7-25.9,3.1-42,2c-21.3-1.5-48.3,2.1-51-12c-7.3,3-8.4,10.5-19,8c-5.8-1.3-7.2-8.5-10-14
	c-4-7.7-6.5-24.5-5-39c2.9-27.6,23.7-68.7,34-98c4-11.5,10.4-23.2,9-35c-1.5-12.9-13.3-23.4-20-26c-12.1-4.7-25.7-0.8-26-12
	c-0.3-11.5,18.5-11,25-18c11.6-12.5,9.9-37.2,18-49c14.1-10.4,38.4-7,64-7C232.7,21.5,369.1,23.1,486.5,19.5z M163.5,141.5
	c-4.4,47.5,107.7,45.7,110,7c0.6-10.5-10.2-27.4-21-30c-10.5-2.6-56.9-1.1-66,1C173.6,122.6,164.4,131.3,163.5,141.5z"/>
<path fill-rule="evenodd" clip-rule="evenodd" fill="none" stroke="#FFFFFF" d="M186.5,119.5c9.1-2.1,55.5-3.6,66-1
	c10.8,2.6,21.6,19.5,21,30c-2.3,38.7-114.4,40.5-110-7C164.4,131.3,173.6,122.6,186.5,119.5z"/>
</svg>
