<?xml version="1.0" standalone="no"?>
<!DOCTYPE svg PUBLIC "-//W3C//DTD SVG 20010904//EN"
 "http://www.w3.org/TR/2001/REC-SVG-20010904/DTD/svg10.dtd">
<svg version="1.0" xmlns="http://www.w3.org/2000/svg"
 width="250.000000pt" height="250.000000pt" viewBox="0 0 250.000000 250.000000"
 preserveAspectRatio="xMidYMid meet">
<metadata>
Created by potrace 1.15, written by Peter Selinger 2001-2017
</metadata>
<g transform="translate(0.000000,250.000000) scale(0.100000,-0.100000)"
fill="#000000" stroke="none">
<path d="M1479 2227 c-65 -43 -79 -91 -95 -324 -7 -114 -14 -261 -14 -325 0
-65 -4 -119 -10 -123 -5 -3 -23 4 -39 16 -24 17 -44 22 -91 22 -67 0 -102 -18
-130 -68 -15 -27 -20 -29 -87 -30 -85 -2 -118 -20 -142 -76 -9 -21 -20 -39
-26 -39 -5 0 -25 40 -44 88 -83 215 -116 284 -153 327 -37 42 -43 45 -88 45
-112 0 -127 -68 -61 -286 21 -71 76 -246 121 -389 45 -143 87 -276 92 -295 20
-72 99 -217 148 -272 l50 -56 0 -91 0 -91 36 -15 c66 -28 179 -44 304 -45 127
0 188 7 272 33 26 8 49 13 51 11 6 -6 17 136 17 215 0 86 12 104 141 222 145
131 228 218 249 259 17 35 33 106 45 208 7 56 20 70 135 155 60 44 76 78 61
128 -10 32 -18 40 -51 50 -62 19 -187 -2 -264 -44 -57 -31 -63 -38 -103 -117
-23 -47 -47 -86 -53 -88 -5 -2 -18 14 -27 35 -15 33 -18 91 -24 433 -4 273
-10 408 -19 438 -21 71 -76 112 -150 112 -9 0 -32 -10 -51 -23z m86 -53 c9 -4
26 -25 38 -48 22 -40 22 -50 25 -477 l3 -436 -45 -27 c-25 -14 -73 -52 -106
-83 -33 -30 -62 -54 -64 -52 -2 2 -13 33 -25 68 -27 83 -28 154 -1 191 47 66
52 100 60 415 8 308 17 378 52 428 20 27 33 32 63 21z m-973 -504 c31 -23 67
-96 148 -290 34 -80 69 -156 79 -170 11 -15 20 -51 23 -90 5 -54 19 -91 82
-223 l76 -158 41 23 c22 12 58 42 80 65 22 24 44 43 49 43 5 0 16 -13 25 -30
9 -16 21 -30 28 -30 23 0 104 57 133 94 33 41 44 45 44 16 0 -15 7 -20 25 -20
14 0 28 0 32 -1 4 0 14 21 23 48 21 64 73 138 119 169 40 26 58 32 133 43 61
9 73 21 114 108 35 73 64 103 132 138 19 9 40 14 48 11 8 -3 14 -2 14 3 0 13
90 22 111 11 42 -23 11 -66 -91 -128 -68 -40 -79 -60 -101 -183 -13 -68 -31
-130 -44 -154 -22 -37 -157 -176 -284 -291 -30 -27 -67 -69 -83 -93 -27 -43
-28 -51 -28 -158 l0 -112 -30 -16 c-51 -27 -217 -40 -328 -27 -54 6 -116 17
-138 24 l-39 13 4 82 3 83 -58 58 c-70 69 -120 160 -164 297 -18 55 -81 246
-141 425 -60 179 -112 344 -115 367 -11 69 27 94 78 53z m684 -261 c16 -17 20
-43 25 -148 4 -81 12 -143 23 -172 15 -39 16 -53 6 -89 -12 -45 -62 -104 -82
-98 -7 3 -36 60 -65 129 -48 112 -53 131 -53 199 0 91 14 145 45 176 30 30 75
31 101 3z m-225 -89 c17 -10 19 -22 19 -111 0 -91 3 -107 30 -165 28 -62 29
-65 14 -106 -14 -39 -58 -98 -74 -98 -12 0 -122 244 -127 282 -3 20 -2 62 2
92 11 94 71 140 136 106z"/>
</g>
</svg>
